<?xml version="1.0" encoding="utf-8"?>
<!-- Generator: Adobe Illustrator 27.0.1, SVG Export Plug-In . SVG Version: 6.00 Build 0)  -->
<svg version="1.1" id="Layer_2_00000181785427972510551480000004604480768591597216_"
	 xmlns="http://www.w3.org/2000/svg" xmlns:xlink="http://www.w3.org/1999/xlink" x="0px" y="0px" viewBox="0 0 902.4 212"
	 style="enable-background:new 0 0 902.4 212;" xml:space="preserve">
<style type="text/css">
	.st0{fill:#FBBA00;stroke:#B18A25;stroke-miterlimit:10;}
	.st1{fill:none;stroke:#48A2B8;stroke-width:2;stroke-miterlimit:10;}
	.st2{fill:#48A2B8;stroke:#000000;stroke-width:0.5;stroke-miterlimit:10;}
	.st3{fill:#30AB4A;stroke:#000000;stroke-width:0.5;stroke-miterlimit:10;}
</style>
<g id="yazi">
	<g id="People">
		<path class="st0" d="M798,51.5c-0.6,3.4-1.2,6.8-1.9,10.2c-0.2,1-0.7,2-1.2,2.9c-0.2,0.4-0.9,0.4-1.3,0.6
			c-0.2-0.4-0.6-0.9-0.4-1.2c1.7-2.9,0.9-6.1,1-9.1c0.1-4.2,0-8.4-0.3-12.8c-0.9,1.1-1.7,2.3-2.6,3.3c-1.3,1.4-1.4,3-1.3,4.8
			c0.1,3.2,0,6.4-0.3,9.6c0-2.9,0.1-5.7,0-8.5c-0.1-1.4-0.5-2.8-0.8-4.2c-0.1-0.3-0.1-0.7,0-1c1-2.2,2.1-4.5,3.1-6.7
			c0.7-1.7,1.2-3.6,2-5.3c0.3-0.6,0.9-1.2,1.5-1.4c1.4-0.4,1.5-1.3,1.2-2.5c-0.1-0.5-0.1-1.1-0.2-1.6c-0.3-1.1,0-2.1,1.1-2.3
			c1-0.2,2.6-0.1,3.1,0.5c0.5,0.7,0.2,2.1,0.2,3.3c0,0.3-0.3,0.6-0.5,1.2c1,0.8,2.1,1.5,2.9,2.5c0.7,0.8,1.4,1.9,1.6,2.9
			c0.5,2.8,1.1,5.7,1,8.5c-0.1,1.9-1.4,3.7-2.2,5.5c-0.2,0.4-0.6,0.8-0.6,1.2c-0.1,4-0.2,7.9-0.3,11.9c0,0.7-0.6,1.3-0.9,2
			c-0.3-0.6-0.8-1.2-0.9-1.8c-0.6-4.1-1.1-8.3-1.7-12.4C798.5,51.5,798.2,51.5,798,51.5L798,51.5z"/>
		<path class="st0" d="M451.3,133.6c0.5-5.6,1.1-11.3,1.6-16.9c0.1-0.8,0.9-2-0.7-2.3c-0.1,0-0.1-0.4-0.1-0.6
			c0.2-4.1-0.8-8.3,1.6-12.1c0.6-0.9,1.6-1.7,2.7-2.1c1-0.4,1.2-0.8,1-1.8c-0.2-0.9-0.1-2,0.4-2.7c0.4-0.5,2-0.8,2.3-0.5
			c0.6,0.8,1.1,2,0.8,2.8c-0.5,1.5-0.3,2.2,1.2,2.8c0.8,0.3,1.5,1.3,1.8,2.1c1,3.2,1.5,6.6,0.5,10c-1.5,5.1-1.5,10.3-1,15.5
			c0.2,1.6,0.5,3.2,0.8,5.1c-1.6,0.4-3-0.1-3.4-1.8c-0.5-2-0.4-4.1-0.5-6.1c-0.2-2.6-0.5-5.1-0.8-7.7c-0.3,0-0.5,0-0.8,0
			c-0.4,2.4-0.9,4.9-1.2,7.3c-0.2,1.6-0.2,3.3-0.3,5c0,0.4,0.1,0.8,0,1c-0.8,1-1.6,2-2.4,2.9c-0.3-1-0.9-2-0.9-3
			c0.2-3.4,0.8-6.7,0.9-10.1c0.2-4.9,0-9.9-0.4-14.9c-0.2,1.3-0.6,2.6-0.6,3.9c-0.1,2.3,0.1,4.7-0.1,7c-0.5,5.8-1.1,11.5-1.7,17.2
			L451.3,133.6L451.3,133.6z"/>
		<path class="st0" d="M778.8,135.2c0.6-6.1,1.2-12.2,1.7-18.3c0.1-0.9,1-2.1-0.8-2.5c-0.1,0-0.1-0.4-0.1-0.6
			c0.2-4.4-0.9-9,1.7-13.1c0.6-1,1.8-1.9,2.9-2.3c1.1-0.5,1.3-0.9,1.1-2c-0.2-0.9-0.1-2.2,0.5-2.9c0.4-0.5,2.2-0.8,2.5-0.5
			c0.6,0.8,1.2,2.2,0.9,3c-0.6,1.7-0.4,2.4,1.3,3c0.8,0.3,1.6,1.4,1.9,2.3c1.1,3.5,1.7,7.1,0.6,10.8c-1.6,5.5-1.7,11.2-1,16.8
			c0.2,1.8,0.5,3.5,0.9,5.5c-1.7,0.4-3.3-0.1-3.7-1.9c-0.5-2.1-0.4-4.4-0.6-6.6c-0.3-2.8-0.6-5.6-0.9-8.3c-0.3,0-0.6,0-0.9,0
			c-0.5,2.6-1,5.2-1.3,7.9c-0.2,1.8-0.2,3.6-0.3,5.4c0,0.4,0.1,0.9,0,1.1c-0.8,1.1-1.7,2.1-2.6,3.2c-0.3-1.1-1-2.2-0.9-3.2
			c0.2-3.7,0.9-7.3,1-10.9c0.2-5.3,0-10.7-0.5-16.1c-0.2,1.4-0.6,2.8-0.7,4.2c-0.1,2.5,0.1,5-0.1,7.5c-0.5,6.2-1.2,12.4-1.8,18.7
			L778.8,135.2L778.8,135.2z"/>
		<path class="st0" d="M542.9,165v-1.9c-0.8-0.1-1.5-0.2-2.5-0.4v-7.6c-1.6,0.1-2.8,0.3-4.1,0.4c-0.3,2.5-0.5,4.9-0.8,7.3
			c-0.1,0-0.2,0-0.3,0c0.2-2.2,0.3-4.5,0.5-6.8c0.2-1.9,0.4-3.9,0.5-5.8c0.2-2.1,0.8-3.6,2.6-5.1c1.3-1,1.6-3.2,2.2-4.9
			c0.6-1.5,1-3.1,1.4-4.7c0.1-0.3,0-0.8-0.2-1.1c-0.6-1-0.4-1.9,0.3-2.8c0.6-0.8,1.4-0.7,2.1-0.4c0.9,0.4,1.5,1.1,1.4,2.3
			c0,0.6,0.5,1.3,0.9,2c0.4,0.8,1.2,1.5,1.2,2.3c0.6,5.9,1,11.7,1.4,17.6c0,0.6-0.4,1.1-0.6,1.7c-0.1,0.4-0.2,0.9-0.2,1.3
			c0.1,1.7,0.2,3.4,0.3,5.1c-0.1,0-0.2,0-0.4,0c-0.2-2.1-0.3-4.2-0.5-6.4c-0.2,0-0.4,0-0.6,0c0.1,1.3,0.1,2.6,0.2,3.9
			c0.1,1.7-0.5,2.3-2,1.8c0.2-1.3,0.4-2.6,0.5-4c0-0.4,0-0.9-0.2-1.2c-0.3-0.4-0.8-0.7-1.2-0.7c-0.2,0-0.8,0.6-0.7,0.9
			c0,1.1,0.2,2.3,0.4,3.4c0.1,0.7,0.1,1.1-0.7,1.5C543.6,163,543.4,164.1,542.9,165L542.9,165z"/>
		<path class="st0" d="M816.4,126.3v-1.9c-0.8-0.1-1.5-0.2-2.5-0.4v-7.6c-1.6,0.1-2.8,0.3-4.1,0.4c-0.3,2.5-0.5,4.9-0.8,7.3
			c-0.1,0-0.2,0-0.3,0c0.2-2.2,0.3-4.5,0.5-6.8c0.2-1.9,0.4-3.9,0.5-5.8c0.2-2.1,0.8-3.6,2.6-5.1c1.3-1,1.6-3.2,2.2-4.9
			c0.6-1.5,1-3.1,1.4-4.7c0.1-0.3,0-0.8-0.2-1.1c-0.6-1-0.4-1.9,0.3-2.8c0.6-0.8,1.4-0.7,2.1-0.4c0.9,0.4,1.5,1.1,1.4,2.3
			c0,0.6,0.5,1.3,0.9,2c0.4,0.8,1.2,1.5,1.2,2.3c0.6,5.9,1,11.7,1.4,17.6c0,0.6-0.4,1.1-0.6,1.7c-0.1,0.4-0.2,0.9-0.2,1.3
			c0.1,1.7,0.2,3.4,0.3,5.1c-0.1,0-0.2,0-0.4,0c-0.2-2.1-0.3-4.2-0.5-6.4c-0.2,0-0.4,0-0.6,0c0.1,1.3,0.1,2.6,0.2,3.9
			c0.1,1.7-0.5,2.3-2,1.8c0.2-1.3,0.4-2.6,0.5-4c0-0.4,0-0.9-0.2-1.2c-0.3-0.4-0.8-0.7-1.2-0.7c-0.2,0-0.8,0.6-0.7,0.9
			c0,1.1,0.2,2.3,0.4,3.4c0.1,0.7,0.1,1.1-0.7,1.5C817.1,124.3,816.9,125.4,816.4,126.3L816.4,126.3z"/>
		<path class="st0" d="M203.9,161.8c-2,0.1-2.6-0.4-2.8-2.3c-0.2-1.7-0.3-3.3-0.8-5c0,1.5,0,3.1,0,4.6c0,1.8-0.7,2.3-2.1,2.1
			c-0.9-4.2-1.7-8.3-2.6-12.4c-0.4,4.9-0.1,9.9-0.9,14.7h-0.3c0-0.4-0.1-0.8-0.1-1.1c0.2-5.8,0.5-11.7,0.6-17.5c0-1.6-0.8-3.3-1.1-5
			c-0.2-0.9-0.2-1.8,0-2.7c0.2-1.1,0.5-2.1,0.9-3.1c0.3-0.6,0.7-1.3,1.2-1.6c1.2-0.7,1.9-1.3,0.9-2.8c-0.8-1.1-0.6-2.5,0.4-3.5
			c0.9-0.9,2.1-1.3,3.2-0.5c0.5,0.4,0.8,1.3,0.9,2c0.1,1-0.1,2-0.1,3c0,0.2,0.2,0.7,0.4,0.7c2.3,0.4,2.6,2.4,3.7,4.6
			c0.4-0.7,0.8-1.4,1.4-2c0.9-1,2.1-1.8,3.1-2.7c0.4-0.4,0.6-0.9,0.7-1.4c0.1-0.6-0.1-1.3-0.1-1.9c0.1-2,1.1-3,3-3
			c1.3,0,2.5,1.2,2.1,3c-0.5,2.3-0.3,4,1.4,5.7c0.4,0.4,0.2,1.4,0.2,2.1c0,2.6-0.1,5.2-0.2,7.9c-0.1,1.8-0.5,3.7-0.7,5.5
			c-0.2,2.5-0.3,5-0.5,7.5c-0.1,1.3-0.4,2.5-0.7,3.9c-1.7,0.5-2.6-0.6-2.4-2.8c0.2-2,0-4,0-6c-0.2,0-0.4,0-0.6,0
			c-0.2,1.8-0.4,3.6-0.5,5.4c-0.1,2-1.2,2.9-2.5,2.4V142c-1.5,1-2.1,2-2,3.6c0.5,5.5,0.9,11,1.4,16.5c0,0.3-0.1,0.5-0.4,0.9
			c-0.5-1.5-1.2-2.9-1.3-4.4c-0.4-3.8-0.4-7.6-0.7-11.4c0-0.6-0.4-1.6-0.9-1.7c-1.1-0.4-1.2,0.7-1.3,1.4c-0.1,3.3-0.2,6.6-0.2,9.9
			C203.7,158.7,203.8,160.2,203.9,161.8L203.9,161.8z M205.3,137.4c1,1.5,0.9,4.4,3.4,3.3c1.5-0.7,0.4-2.4,0.2-3.6
			C207.6,137.3,206.4,137.4,205.3,137.4z M204.3,145.3c0.6-0.2,1.5-0.3,1.5-0.5c0.1-0.8,0-1.5-0.2-2.3c-0.1-0.2-0.8-0.2-1.3-0.2
			V145.3L204.3,145.3z"/>
		<path class="st0" d="M740.9,120.9c-2,0.1-2.6-0.4-2.8-2.3c-0.2-1.7-0.3-3.3-0.8-5c0,1.5,0,3.1,0,4.6c0,1.8-0.7,2.3-2.1,2.1
			c-0.9-4.2-1.7-8.3-2.6-12.4c-0.4,4.9-0.1,9.9-0.8,14.7h-0.4c0-0.4-0.1-0.8-0.1-1.1c0.2-5.8,0.5-11.7,0.5-17.5c0-1.6-0.8-3.3-1.1-5
			c-0.2-0.9-0.2-1.8,0-2.7c0.2-1.1,0.5-2.1,1-3.1c0.3-0.6,0.7-1.3,1.2-1.6c1.2-0.7,1.9-1.3,0.9-2.8c-0.8-1.1-0.5-2.5,0.4-3.5
			c0.9-0.9,2.2-1.3,3.2-0.5c0.5,0.4,0.8,1.3,0.9,2c0.1,1-0.1,2-0.1,3c0,0.2,0.2,0.7,0.4,0.7c2.3,0.4,2.6,2.4,3.7,4.6
			c0.5-0.7,0.8-1.4,1.4-2c1-1,2.1-1.8,3-2.7c0.4-0.4,0.7-0.9,0.7-1.4c0.1-0.6-0.1-1.3-0.1-1.9c0.1-2,1.1-3,3-3c1.3,0,2.5,1.2,2.2,3
			c-0.5,2.3-0.3,4,1.4,5.7c0.4,0.4,0.2,1.4,0.2,2.1c0,2.6-0.1,5.2-0.2,7.9c-0.1,1.8-0.5,3.7-0.7,5.5c-0.2,2.5-0.3,5-0.5,7.5
			c-0.1,1.3-0.4,2.5-0.7,3.9c-1.7,0.5-2.6-0.6-2.4-2.8c0.2-2,0-4,0-6c-0.2,0-0.4,0-0.6,0c-0.2,1.8-0.4,3.6-0.5,5.4
			c-0.1,2-1.2,2.9-2.5,2.4v-17.6c-1.5,1-2.1,2-2,3.6c0.5,5.5,0.9,11,1.4,16.5c0,0.3,0,0.5-0.4,0.9c-0.5-1.5-1.2-2.9-1.3-4.4
			c-0.4-3.8-0.4-7.6-0.7-11.4c0-0.6-0.5-1.6-0.9-1.7c-1.1-0.4-1.2,0.7-1.3,1.4c-0.1,3.3-0.2,6.6-0.2,9.9
			C740.7,117.8,740.9,119.3,740.9,120.9L740.9,120.9z M742.3,96.6c1,1.5,0.9,4.4,3.4,3.3c1.5-0.7,0.4-2.4,0.2-3.6
			C744.6,96.4,743.5,96.5,742.3,96.6z M741.3,104.4c0.7-0.2,1.5-0.3,1.5-0.5c0.1-0.8,0-1.5-0.2-2.3c0-0.2-0.8-0.2-1.3-0.2V104.4
			L741.3,104.4z"/>
		<path class="st0" d="M568.9,150.9c-2,0.1-2.6-0.4-2.8-2.3c-0.2-1.7-0.3-3.3-0.8-5c0,1.5,0,3.1,0,4.6c0,1.8-0.7,2.3-2.1,2.1
			c-0.9-4.2-1.7-8.3-2.6-12.4c-0.4,4.9-0.1,9.9-0.8,14.7h-0.4c0-0.4-0.1-0.8-0.1-1.1c0.2-5.8,0.5-11.7,0.5-17.5c0-1.6-0.8-3.3-1.1-5
			c-0.2-0.9-0.2-1.8,0-2.7c0.2-1.1,0.5-2.1,1-3.1c0.3-0.6,0.7-1.3,1.2-1.6c1.2-0.7,1.9-1.3,0.9-2.8c-0.8-1.1-0.5-2.5,0.4-3.5
			c0.9-0.9,2.2-1.3,3.2-0.5c0.5,0.4,0.8,1.3,0.9,2c0.1,1-0.1,2-0.1,3c0,0.2,0.2,0.7,0.4,0.7c2.3,0.4,2.6,2.4,3.7,4.6
			c0.5-0.7,0.8-1.4,1.4-2c1-1,2.1-1.8,3-2.7c0.4-0.4,0.7-0.9,0.7-1.4c0.1-0.6-0.1-1.3-0.1-1.9c0.1-2,1.1-3,3-3c1.3,0,2.5,1.2,2.2,3
			c-0.5,2.3-0.3,4,1.4,5.7c0.4,0.4,0.2,1.4,0.2,2.1c0,2.6-0.1,5.2-0.2,7.9c-0.1,1.8-0.5,3.7-0.7,5.5c-0.2,2.5-0.3,5-0.5,7.5
			c-0.1,1.3-0.4,2.5-0.7,3.9c-1.7,0.5-2.6-0.6-2.4-2.8c0.2-2,0-4,0-6c-0.2,0-0.4,0-0.6,0c-0.2,1.8-0.4,3.6-0.5,5.4
			c-0.1,2-1.2,2.9-2.5,2.4v-17.6c-1.5,1-2.1,2-2,3.6c0.5,5.5,0.9,11,1.4,16.5c0,0.3,0,0.5-0.4,0.9c-0.5-1.5-1.2-2.9-1.3-4.4
			c-0.4-3.8-0.4-7.6-0.7-11.4c0-0.6-0.5-1.6-0.9-1.7c-1.1-0.4-1.2,0.7-1.3,1.4c-0.1,3.3-0.2,6.6-0.2,9.9
			C568.7,147.8,568.8,149.3,568.9,150.9L568.9,150.9z M570.3,126.6c1,1.5,0.9,4.4,3.4,3.3c1.5-0.7,0.4-2.4,0.2-3.6
			C572.6,126.4,571.4,126.5,570.3,126.6z M569.3,134.4c0.7-0.2,1.5-0.3,1.5-0.5c0.1-0.8,0-1.5-0.2-2.3c0-0.2-0.8-0.2-1.3-0.2V134.4
			L569.3,134.4z"/>
		<path class="st0" d="M139,194.3c-1.4,0.9-2.9,1-3.3-0.8c-0.3-1.2,0.2-2.6,0.4-4.1c0.4,0,0.9-0.1,1-0.1c0.6-2.8,0.7-5.6,1.9-7.8
			c1-1.8,0.9-3.2,0.7-4.9c2-0.6,2.7-0.2,3.5,1.8c0.1-0.6,0.1-1.1,0.2-1.7c0.2-1.5,0.6-3.1,0.7-4.6c0.1-0.7-0.1-1.4-0.3-2.1
			c-1.1-3.4-2.2-6.7-3.3-10c-0.4-1.4-0.3-2.8,1.1-3.6c0.8,2.2,1.3,4.6,2.4,6.7c1,2.1,1.9,4.4,4,5.9c0.2-1.6,0.3-2.8,0.7-4
			c0.3-1,0.3-2.3,2-2s3.2,1.6,3.3,3.1c0,0.8,0,1.5,0,2.7c1.2-1.3,2.1-2.3,3-3.3c1.3-1.3,2.6-2.5,3.9-3.9c1-1.1,2-2.2,3-3.3
			c0.4-0.5,0.8-0.9,1.2-1.4c0.3,0.3,0.9,0.6,0.9,0.8c0,0.6-0.2,1.3-0.6,1.8c-2.1,2.7-4.2,5.3-6.4,7.9c-0.7,0.9-1.6,1.6-2.3,2.4
			c-0.4,0.5-0.7,1.1-1,1.7c-0.4,0.9-0.9,1.5-0.9,2.3c-0.1,2,0,3.9,0,6c2.9-0.3,4.1,1.5,4.7,3.7c1,3.4,1,6.8-0.6,10
			c-1.5,3-3.9,3.1-5.7,0.3c-0.5-0.8-1.1-1.4-1.3-1.8c-1.3,0.7-2.6,1.9-3.3,1.6c-2.4-0.9-1.1-2.9-0.7-4.6c-0.2,0-0.3-0.1-0.5-0.1
			c-0.9,1.5-1.9,3-2.7,4.5C143.3,196.2,141.5,196.5,139,194.3L139,194.3z"/>
		<path class="st0" d="M757.4,58.8c-1.4,0.9-2.9,1-3.3-0.8c-0.3-1.2,0.2-2.6,0.4-4.1c0.5,0,0.9-0.1,1-0.1c0.6-2.8,0.7-5.6,1.9-7.8
			c1-1.8,0.9-3.2,0.7-4.9c2-0.6,2.7-0.2,3.5,1.8c0.1-0.6,0.1-1.1,0.2-1.7c0.2-1.5,0.5-3.1,0.7-4.6c0.1-0.7-0.1-1.4-0.3-2.1
			c-1.1-3.4-2.2-6.7-3.3-10.1c-0.4-1.4-0.3-2.8,1.1-3.6c0.8,2.2,1.3,4.6,2.4,6.7c1,2.1,1.9,4.4,4,5.9c0.2-1.6,0.3-2.8,0.7-4
			c0.3-1,0.3-2.3,2-2s3.2,1.6,3.3,3.1c0,0.8,0,1.5,0,2.7c1.2-1.3,2.1-2.3,3-3.3c1.3-1.3,2.6-2.5,3.9-3.9c1-1.1,2-2.2,3-3.3
			c0.4-0.4,0.8-0.9,1.2-1.4c0.3,0.3,0.9,0.6,0.9,0.8c0,0.6-0.2,1.3-0.6,1.8c-2.1,2.7-4.2,5.3-6.4,7.9c-0.7,0.9-1.6,1.6-2.3,2.4
			c-0.4,0.5-0.7,1.1-1,1.7c-0.4,0.9-0.9,1.6-0.9,2.3c-0.1,1.9,0,3.9,0,6c2.9-0.3,4.1,1.5,4.7,3.7c1,3.4,1,6.8-0.6,10
			c-1.5,3-3.9,3.1-5.7,0.3c-0.5-0.8-1-1.4-1.3-1.8c-1.3,0.7-2.6,1.9-3.3,1.6c-2.4-0.9-1.1-2.9-0.7-4.6c-0.2,0-0.3-0.1-0.5-0.1
			c-0.9,1.5-1.9,3-2.7,4.5C761.6,60.7,759.8,61.1,757.4,58.8L757.4,58.8z"/>
	</g>
	<path id="Route" class="st1" d="M858.9,62.3c-11.6,7.4-29,16.1-50.7,17.3c-29.2,1.6-49-11.2-65.3-18.7
		c-56.5-25.7-135.7-15.2-181.3,16c-50.1,34.3-43.3,82.5-81.3,88c-35.2,5.1-51.9-34.6-98.7-29.3c-19.5,2.2-15.6,9-57.3,25.3
		c-36.3,14.2-71.1,27.3-108,17.3c-12.2-3.3-5.7-4-38.7-18.7c-39.7-17.6-62.1-27.2-89.3-24c-8.6,1-22.4,3.9-38.7,13.3"/>
	<g id="Pins">
		<path class="st2" d="M89.5,177l-2.6-3.9l-3-5.1c-0.1-0.1-0.1-0.2-0.1-0.3c-0.2-1-2.1-5.6,1.6-9.8c3.1-3.5,7.8-3.4,8.6-3.3
			c0,0,0,0,0.1,0c0.8,0.1,6.2,0.6,8.5,5.3c1.8,3.5,0.3,7,0,8.1c0,0.1-0.1,0.2-0.1,0.3c-2.1,3.8-5.3,8-8.7,12.1
			c-0.5,0.7-1.6,0.6-2.1-0.1L89.5,177z"/>
		<path class="st3" d="M417.3,185l-2.6-3.9l-3-5.1c-0.1-0.1-0.1-0.2-0.1-0.3c-0.2-1-2.1-5.6,1.6-9.8c3.1-3.5,7.8-3.4,8.6-3.3
			c0,0,0,0,0.1,0c0.8,0.1,6.2,0.6,8.5,5.3c1.8,3.5,0.3,7,0,8.1c0,0.1-0.1,0.2-0.1,0.3c-2.1,3.8-5.3,8-8.7,12.1
			c-0.5,0.7-1.6,0.6-2.1-0.1L417.3,185z"/>
		<path class="st3" d="M253.7,153.7l-2.6-3.9l-3-5.1c-0.1-0.1-0.1-0.2-0.1-0.3c-0.2-1-2.1-5.6,1.6-9.8c3.1-3.5,7.8-3.4,8.6-3.3
			c0,0,0,0,0.1,0c0.8,0.1,6.2,0.6,8.5,5.3c1.8,3.5,0.3,7,0,8.1c0,0.1-0.1,0.2-0.1,0.3c-2.1,3.8-5.3,8-8.7,12.1
			c-0.5,0.7-1.6,0.6-2.1-0.1L253.7,153.7z"/>
		<path class="st2" d="M640.4,99.3l-2.6-3.9l-3-5.1c-0.1-0.1-0.1-0.2-0.1-0.3c-0.2-1-2.1-5.6,1.6-9.8c3.1-3.5,7.8-3.4,8.6-3.3
			c0,0,0,0,0.1,0c0.8,0.1,6.2,0.6,8.5,5.3c1.8,3.5,0.3,7,0,8.1c0,0.1-0.1,0.2-0.1,0.3c-2.1,3.8-5.3,8-8.7,12.1
			c-0.5,0.7-1.6,0.6-2.1-0.1L640.4,99.3z"/>
		<path class="st2" d="M819.4,54.6l-2.6-3.9l-3-5.1c-0.1-0.1-0.1-0.2-0.1-0.3c-0.2-1-2.1-5.6,1.6-9.8c3.1-3.5,7.8-3.4,8.6-3.3
			c0,0,0,0,0.1,0c0.8,0.1,6.2,0.6,8.5,5.3c1.8,3.5,0.3,7,0,8.1c0,0.1-0.1,0.2-0.1,0.3c-2.1,3.8-5.3,8-8.7,12.1
			c-0.5,0.7-1.6,0.6-2.1-0.1L819.4,54.6z"/>
	</g>
</g>
</svg>
