<?xml version="1.0" encoding="UTF-8"?><svg id="Layer_1" xmlns="http://www.w3.org/2000/svg" width="15" height="15" viewBox="0 0 15 15"><circle cx="7.6992" cy="7.3511" r="7" fill="#f8d849"/><rect x="7" y="3" width="2" height="2" fill="#fff"/><rect x="5.9917" y="6.1828" width="4.0498" height="2" transform="translate(-.0083 .0093) rotate(-.0663)" fill="#fff"/><path d="M12.6154,9.4166h-1.3846L8.5385,1.4008c-.1538-.5344-.9231-.5344-1.0769,0l-2.6923,8.0158h-1.3846c-.2308,0-.3846,.1527-.3846,.3817v.7634c0,.229,.1538,.3817,.3846,.3817H12.6154c.2308,0,.3846-.1527,.3846-.3817v-.7634c0-.229-.1538-.3817-.3846-.3817ZM7.6154,3.3093h.7692l.5385,1.5268h-1.7692l.4615-1.5268Zm-1,3.0536h2.7692l.5385,1.5268h-3.8462l.5385-1.5268Z"/></svg>