<?xml version="1.0" encoding="UTF-8"?><svg id="Layer_1" xmlns="http://www.w3.org/2000/svg" width="15" height="15" viewBox="0 0 15 15"><circle cx="7.5252" cy="7.5252" r="7.4748" fill="#f8d849"/><rect x="6.6" y="3.8" width="1.8" height="1.8" fill="#fff"/><rect x="5.6926" y="6.6645" width="3.6448" height="1.8" transform="translate(-.0087 .0087) rotate(-.0663)" fill="#fff"/><path d="M11.6538,9.618h-1.2462L7.9846,2.3628c-.1385-.4837-.8308-.4837-.9692,0l-2.4231,7.2553h-1.2462c-.2077,0-.3462,.1382-.3462,.3455v.691c0,.2073,.1385,.3455,.3462,.3455H11.6538c.2077,0,.3462-.1382,.3462-.3455v-.691c0-.2073-.1385-.3455-.3462-.3455ZM7.1538,4.0902h.6923l.4846,1.382h-1.5923l.4154-1.382Zm-.9,2.7639h2.4923l.4846,1.382h-3.4615l.4846-1.382Z"/></svg>