<?xml version="1.0" encoding="UTF-8"?><svg id="Layer_1" xmlns="http://www.w3.org/2000/svg" width="15" height="15" viewBox="0 0 15 15"><circle cx="7.5" cy="7.5" r="7" fill="#fff" stroke="#000" stroke-miterlimit="10" stroke-width=".5"/><path d="M9.5246,2.7559c0,.5562-.4513,1.0075-1.0075,1.0075s-1.0075-.4513-1.0075-1.0075,.4513-1.0075,1.0075-1.0075,1.0075,.4513,1.0075,1.0075Zm-2.7181,3.1757c-.021,.0084-.0399,.0168-.0609,.0252l-.1679,.0735c-.3442,.1532-.6087,.445-.7283,.8018l-.0546,.1637c-.1175,.3526-.4975,.5415-.8501,.424s-.5415-.4975-.424-.8501l.0546-.1637c.2393-.7157,.7682-1.2993,1.4567-1.6057l.1679-.0735c.4366-.1931,.9088-.2939,1.3874-.2939,.9361,0,1.7799,.5625,2.1388,1.4252l.3232,.7745,.4492,.2246c.3316,.1658,.466,.5688,.3001,.9004s-.5688,.466-.9004,.3001l-.5625-.2792c-.2162-.1091-.3862-.2897-.4786-.5142l-.2015-.4828-.4051,1.3748,1.039,1.1334c.1133,.1238,.1931,.2729,.2351,.4366l.4828,1.9331c.0903,.3589-.128,.7241-.4891,.8144-.361,.0903-.7241-.128-.8144-.4891l-.4618-1.8492-1.484-1.6183c-.3106-.3379-.4261-.8102-.3085-1.2531l.3547-1.3328h.0021Zm-1.2132,4.1706l.5247-1.3097c.0441,.063,.0945,.1217,.1469,.1805l.8543,.9319-.3043,.7598c-.0504,.1259-.1259,.2414-.2225,.3379l-1.2951,1.2951c-.2624,.2624-.6885,.2624-.9508,0s-.2624-.6885,0-.9508l1.2468-1.2447Z"/></svg>