<?xml version="1.0" encoding="utf-8"?>
<!-- Generator: Adobe Illustrator 27.0.1, SVG Export Plug-In . SVG Version: 6.00 Build 0)  -->
<svg version="1.1" id="Layer_1" xmlns="http://www.w3.org/2000/svg" xmlns:xlink="http://www.w3.org/1999/xlink" x="0px" y="0px"
	 viewBox="0 0 15 15" style="enable-background:new 0 0 15 15;" xml:space="preserve">
<style type="text/css">
	.st0{fill:#FFFFFF;stroke:#FF1A1A;stroke-width:0.5;stroke-miterlimit:10;}
</style>
<circle class="st0" cx="7.5" cy="7.5" r="7"/>
<path d="M11.8,9.9C11.8,10,11.8,10,11.8,9.9c-0.5,0.9-1,1.8-1.4,2.6c0,0.1-0.1,0.1-0.1,0.1c-0.4,0-0.8,0-1.2,0c0,0,0-0.1,0.1-0.1
	c0.2-0.4,0.4-0.8,0.6-1.2l0.1-0.1c0.3-0.1,0.4-0.4,0.4-0.7c0-0.1,0-0.1,0-0.2c0.1-0.1,0.1-0.3,0.2-0.4l0.1-0.1
	C11,9.9,11.4,9.9,11.8,9.9L11.8,9.9L11.8,9.9z"/>
<path d="M5.4,12.6c0.2-0.3,0.4-0.7,0.5-1c0.2-0.3,0.3-0.6,0.5-1l0.1-0.1c0.1,0,0.2-0.1,0.3-0.1C7,10.3,7.2,10.2,7.3,10
	c0-0.1,0.1-0.1,0.1-0.1c0.2,0,0.4,0,0.6,0c0,0.1-0.1,0.3-0.1,0.4c-0.4,0.7-0.8,1.5-1.2,2.2l-0.1,0.1C6.2,12.6,5.8,12.6,5.4,12.6
	L5.4,12.6L5.4,12.6z"/>
<path d="M8.7,9.9c0.2,0.4,0.2,0.9,0.5,1.3C9.1,11.4,9,11.7,8.8,12c-0.1,0.2-0.2,0.4-0.3,0.6l-0.1,0.1c-0.4,0-0.8,0-1.2,0
	C7.7,11.7,8.2,10.8,8.7,9.9L8.7,9.9z"/>
<path d="M3.5,12.6C4,11.7,4.4,10.9,4.9,10c-0.1,0.6,0.3,1,0.8,0.9c0,0.1-0.1,0.1-0.1,0.2c-0.3,0.5-0.5,1-0.8,1.5l-0.1,0.1
	C4.3,12.6,3.9,12.6,3.5,12.6L3.5,12.6z"/>
<path d="M9.3,2.5c0,0.5-0.4,0.9-0.9,0.9S7.5,3,7.5,2.5s0.4-0.9,0.9-0.9S9.3,2,9.3,2.5z M6.9,5.4C6.8,5.4,6.8,5.4,6.9,5.4L6.7,5.5
	C6.3,5.6,6.1,5.9,6,6.2v0.1C5.8,6.6,5.5,6.8,5.2,6.7C4.9,6.6,4.7,6.3,4.8,5.9V5.8C5,5.2,5.5,4.6,6.1,4.4l0.2-0.1
	C6.7,4.1,7.1,4,7.6,4c0.8,0,1.6,0.5,1.9,1.3L9.8,6l0.4,0.2c0.3,0.1,0.4,0.5,0.3,0.8C10.4,7.3,10,7.4,9.7,7.3L9.1,7
	C8.9,6.9,8.8,6.8,8.7,6.6L8.5,6.1L8.2,7.4l0.9,1c0.1,0.1,0.2,0.2,0.2,0.4l0.4,1.7c0.1,0.3-0.1,0.6-0.4,0.7c-0.3,0.1-0.6-0.1-0.7-0.4
	L8.1,9.1L6.8,7.7C6.5,7.4,6.4,7,6.5,6.6L6.9,5.4L6.9,5.4L6.9,5.4z M5.8,9.1l0.5-1.2c0,0.1,0,0.1,0.1,0.2l0.8,0.8L6.9,9.6
	c0,0.1-0.1,0.2-0.2,0.3l-1.2,1.2c-0.2,0.2-0.6,0.2-0.9,0c-0.2-0.2-0.2-0.6,0-0.9C4.7,10.2,5.8,9.1,5.8,9.1z"/>
</svg>
