<?xml version="1.0" encoding="utf-8"?>
<!-- Generator: Adobe Illustrator 27.0.1, SVG Export Plug-In . SVG Version: 6.00 Build 0)  -->
<svg version="1.1" id="Layer_1" xmlns="http://www.w3.org/2000/svg" xmlns:xlink="http://www.w3.org/1999/xlink" x="0px" y="0px"
	 viewBox="0 0 15 15" style="enable-background:new 0 0 15 15;" xml:space="preserve">
<style type="text/css">
	.st0{fill:#FFFFFF;stroke:#000000;stroke-width:0.5;stroke-miterlimit:10;}
	.st1{fill:#E6BE45;}
</style>
<circle class="st0" cx="7.5" cy="7.5" r="7"/>
<path class="st1" d="M11.1,10.7C11.1,10.7,11,10.7,11.1,10.7c-0.5,0.8-0.9,1.5-1.3,2.2c0,0.1-0.1,0.1-0.1,0.1c-0.3,0-0.7,0-1,0
	c0,0,0-0.1,0-0.1c0.2-0.3,0.4-0.6,0.6-1c0,0,0.1-0.1,0.1-0.1c0.2-0.1,0.4-0.3,0.4-0.6c0,0,0-0.1,0-0.1c0.1-0.1,0.1-0.2,0.2-0.3
	c0,0,0.1-0.1,0.1-0.1C10.3,10.6,10.7,10.6,11.1,10.7C11.1,10.6,11.1,10.6,11.1,10.7L11.1,10.7z"/>
<path class="st1" d="M5.2,12.9c0.2-0.3,0.3-0.5,0.5-0.8c0.2-0.3,0.3-0.5,0.5-0.8c0,0,0.1-0.1,0.1-0.1c0.1,0,0.2-0.1,0.3-0.1
	C6.7,11,6.9,10.9,7,10.7c0-0.1,0.1-0.1,0.1-0.1c0.2,0,0.4,0,0.6,0c-0.1,0.1-0.1,0.2-0.2,0.3c-0.4,0.6-0.7,1.2-1.1,1.8
	c0,0-0.1,0.1-0.1,0.1C6,12.9,5.6,12.9,5.2,12.9C5.3,12.9,5.2,12.9,5.2,12.9L5.2,12.9z"/>
<path class="st1" d="M8.3,10.6c0.2,0.4,0.2,0.8,0.5,1.1c-0.1,0.2-0.3,0.4-0.4,0.6c-0.1,0.2-0.2,0.3-0.3,0.5c0,0-0.1,0.1-0.1,0.1
	c-0.4,0-0.7,0-1.1,0C7.4,12.1,7.8,11.4,8.3,10.6L8.3,10.6z"/>
<path class="st1" d="M3.5,12.9c0.4-0.7,0.8-1.4,1.3-2.2c-0.1,0.5,0.3,0.8,0.7,0.7c0,0.1-0.1,0.1-0.1,0.1c-0.2,0.4-0.5,0.8-0.7,1.2
	c0,0-0.1,0.1-0.1,0.1C4.3,12.9,3.9,12.9,3.5,12.9L3.5,12.9z"/>
<path d="M9.5,2.8c0,0.6-0.5,1-1,1s-1-0.5-1-1s0.5-1,1-1S9.5,2.2,9.5,2.8z M6.8,5.9C6.8,5.9,6.8,5.9,6.8,5.9L6.6,6
	C6.2,6.2,6,6.5,5.8,6.8L5.8,7C5.7,7.3,5.3,7.5,4.9,7.4S4.4,6.9,4.5,6.6l0.1-0.2C4.8,5.7,5.3,5.1,6,4.8l0.2-0.1
	c0.4-0.2,0.9-0.3,1.4-0.3c0.9,0,1.8,0.6,2.1,1.4L10,6.6l0.4,0.2C10.8,7,11,7.4,10.8,7.8c-0.2,0.3-0.6,0.5-0.9,0.3L9.3,7.8
	C9.1,7.7,8.9,7.5,8.9,7.3L8.7,6.8L8.3,8.2l1,1.1c0.1,0.1,0.2,0.3,0.2,0.4l0.5,1.9c0.1,0.4-0.1,0.7-0.5,0.8c-0.4,0.1-0.7-0.1-0.8-0.5
	l-0.5-1.8L6.8,8.5C6.4,8.2,6.3,7.7,6.4,7.3L6.8,5.9L6.8,5.9L6.8,5.9z M5.6,10.1l0.5-1.3c0,0.1,0.1,0.1,0.1,0.2l0.9,0.9l-0.3,0.8
	c-0.1,0.1-0.1,0.2-0.2,0.3l-1.3,1.3c-0.3,0.3-0.7,0.3-1,0s-0.3-0.7,0-1C4.3,11.3,5.6,10.1,5.6,10.1z"/>
</svg>
