<?xml version="1.0" encoding="utf-8"?>
<!-- Generator: Adobe Illustrator 27.0.1, SVG Export Plug-In . SVG Version: 6.00 Build 0)  -->
<svg version="1.1" id="Layer_2_00000154418791342452755760000017434075801301640078_"
	 xmlns="http://www.w3.org/2000/svg" xmlns:xlink="http://www.w3.org/1999/xlink" x="0px" y="0px" viewBox="0 0 15 15"
	 style="enable-background:new 0 0 15 15;" xml:space="preserve">
<style type="text/css">
	.st0{fill:#73653A;}
	.st1{fill:#FFFFFF;}
	.st2{fill:#E6BE45;}
</style>
<g id="Layer_1-2">
	<g>
		<path class="st0" d="M0,7.5C0,3.4,3.4,0,7.5,0C11.6,0,15,3.4,15,7.5c0,4.1-3.4,7.5-7.5,7.5C3.4,15,0,11.6,0,7.5z M0.8,7.5
			c0,3.7,3,6.7,6.7,6.7c3.7,0,6.7-3,6.7-6.7c0-3.7-3-6.7-6.7-6.7C3.8,0.8,0.8,3.8,0.8,7.5z"/>
		<path class="st1" d="M0.8,7.5c0-3.7,3-6.7,6.7-6.7c3.7,0,6.7,3,6.7,6.7c0,3.7-3,6.7-6.7,6.7C3.8,14.2,0.8,11.2,0.8,7.5z M1.4,7.5
			c0,3.4,2.7,6.1,6.1,6.1c3.4,0,6.1-2.7,6.1-6.1c0-3.4-2.7-6.1-6.1-6.1C4.1,1.4,1.4,4.1,1.4,7.5L1.4,7.5z"/>
		<path class="st0" d="M1.4,7.5c0-3.4,2.7-6.1,6.1-6.1c3.3,0,6.1,2.7,6.1,6.1c0,3.4-2.7,6.1-6.1,6.1C4.1,13.6,1.4,10.9,1.4,7.5
			L1.4,7.5z M7.6,8.2c0.3,0.3,0.7,0.5,1,0.8c0,0,0.1,0.1,0.1,0.1C8.8,9.4,8.9,9.7,9,10c0.1,0.3,0.3,0.4,0.6,0.3
			c0.2-0.1,0.3-0.3,0.3-0.6C9.7,9.3,9.6,9,9.5,8.7C9.4,8.5,9.3,8.4,9.2,8.3C8.9,8.1,8.6,7.9,8.4,7.7c-0.1,0-0.1-0.1-0.1-0.1
			c0-0.5,0-1.1,0-1.6c0,0,0,0,0-0.1C8.4,6,8.6,6.1,8.7,6.2c0.2,0.2,0.3,0.2,0.5,0C9.4,6,9.6,5.9,9.9,5.7c0.2-0.1,0.2-0.3,0.1-0.5
			C9.9,5,9.6,5,9.5,5.1C9.3,5.2,9.2,5.3,9,5.4C9,5.5,8.9,5.5,8.8,5.4C8.7,5.3,8.5,5.1,8.4,5c0,0-0.1-0.1-0.2-0.1c-0.4,0-0.9,0-1.3,0
			c-0.1,0-0.1,0-0.2,0C6.4,5.1,6.1,5.3,5.7,5.5C5.6,5.6,5.5,5.7,5.5,5.8c0,0.3,0.1,0.6,0.1,0.9c0,0.2,0.2,0.3,0.4,0.3
			c0.2,0,0.3-0.2,0.3-0.4c0-0.2-0.1-0.4-0.1-0.6c0,0,0-0.1,0-0.1c0.1-0.1,0.3-0.1,0.4-0.2c0,0,0,0.1,0,0.1c0,0.6,0,1.3,0,1.9
			c0,0,0,0.1,0,0.1C6.6,8.1,6.5,8.4,6.3,8.7c0,0-0.1,0.1-0.1,0.1C5.9,8.9,5.6,9,5.3,9.1C5.1,9.2,5,9.4,5.1,9.6
			C5.1,9.9,5.4,10,5.6,9.9c0.3-0.1,0.7-0.3,1-0.4C6.8,9.5,6.9,9.4,7,9.2c0-0.1,0.1-0.1,0.1-0.2C7.3,8.8,7.4,8.5,7.6,8.2L7.6,8.2z
			 M11.5,9.3C11.5,9.3,11.5,9.2,11.5,9.3c-0.4,0-0.8,0-1.1,0c0,0-0.1,0-0.1,0.1c-0.1,0.1-0.1,0.2-0.2,0.4c0,0,0,0.1,0,0.1
			c0,0.3-0.1,0.5-0.4,0.6c0,0-0.1,0-0.1,0.1c-0.2,0.3-0.4,0.7-0.6,1c0,0,0,0.1-0.1,0.1c0.4,0,0.7,0,1.1,0c0.1,0,0.1,0,0.1-0.1
			C10.6,10.8,11,10.1,11.5,9.3C11.5,9.3,11.5,9.3,11.5,9.3L11.5,9.3z M5.3,11.6C5.3,11.6,5.3,11.6,5.3,11.6c0.4,0,0.8,0,1.1,0
			c0,0,0.1,0,0.1-0.1c0.4-0.6,0.8-1.3,1.2-1.9c0.1-0.1,0.1-0.2,0.2-0.4c-0.2,0-0.4,0-0.6,0c-0.1,0-0.1,0-0.1,0.1
			C7.1,9.5,6.9,9.6,6.7,9.7c-0.1,0-0.2,0.1-0.3,0.1c0,0-0.1,0.1-0.1,0.1c-0.2,0.3-0.3,0.6-0.5,0.8C5.6,11,5.5,11.3,5.3,11.6
			L5.3,11.6z M8.5,9.2C8,10,7.6,10.8,7.1,11.6c0.4,0,0.8,0,1.2,0c0,0,0.1,0,0.1-0.1c0.1-0.2,0.2-0.3,0.3-0.5
			c0.1-0.2,0.3-0.5,0.4-0.7C8.7,10,8.7,9.6,8.5,9.2L8.5,9.2z M3.5,11.6c0.4,0,0.8,0,1.2,0c0,0,0.1,0,0.1-0.1
			c0.3-0.4,0.5-0.9,0.8-1.3c0,0,0.1-0.1,0.1-0.2c-0.4,0.1-0.8-0.3-0.7-0.8C4.4,10.1,4,10.8,3.5,11.6L3.5,11.6z M8.3,4
			c0-0.4-0.4-0.8-0.8-0.8C7.1,3.2,6.8,3.5,6.8,4c0,0.4,0.3,0.8,0.8,0.8C8,4.7,8.3,4.4,8.3,4L8.3,4z"/>
		<path class="st2" d="M7.6,8.2C7.4,8.5,7.2,8.8,7.1,9.1C7.1,9.1,7,9.2,7,9.2C6.9,9.4,6.8,9.5,6.7,9.5C6.3,9.6,6,9.8,5.6,9.9
			c-0.2,0.1-0.5,0-0.6-0.3C5,9.4,5.1,9.2,5.3,9.1C5.6,9,5.9,8.9,6.2,8.8c0.1,0,0.1-0.1,0.1-0.1c0.1-0.3,0.3-0.6,0.4-0.8
			c0,0,0-0.1,0-0.1c0-0.6,0-1.3,0-1.9c0,0,0-0.1,0-0.1C6.6,5.8,6.4,5.9,6.3,6c0,0,0,0.1,0,0.1c0,0.2,0,0.4,0.1,0.6
			c0,0.2-0.1,0.4-0.3,0.4C5.9,7.1,5.7,7,5.7,6.8c0-0.3-0.1-0.6-0.1-0.9c0-0.2,0-0.3,0.2-0.4C6.1,5.3,6.4,5.1,6.7,5
			c0.1,0,0.1,0,0.2,0c0.4,0,0.9,0,1.3,0c0.1,0,0.1,0,0.2,0.1c0.2,0.1,0.3,0.3,0.5,0.4C8.9,5.5,9,5.5,9,5.4c0.1-0.1,0.3-0.2,0.4-0.3
			C9.6,5,9.9,5,10,5.2c0.1,0.2,0.1,0.4-0.1,0.5C9.6,5.9,9.4,6,9.1,6.2C9,6.3,8.8,6.3,8.7,6.2C8.5,6.1,8.4,6,8.3,5.9c0,0,0,0.1,0,0.1
			c0,0.5,0,1.1,0,1.6c0,0.1,0,0.1,0.1,0.1c0.3,0.2,0.5,0.4,0.8,0.6c0.1,0.1,0.2,0.2,0.3,0.4c0.1,0.3,0.2,0.7,0.3,1
			c0.1,0.3,0,0.5-0.3,0.6c-0.2,0.1-0.5,0-0.6-0.3C8.9,9.7,8.8,9.4,8.7,9.1c0,0,0-0.1-0.1-0.1C8.3,8.7,7.9,8.4,7.6,8.2L7.6,8.2z"/>
		<path class="st2" d="M11.5,9.3C11.5,9.3,11.5,9.3,11.5,9.3c-0.5,0.8-0.9,1.5-1.3,2.3c0,0.1-0.1,0.1-0.1,0.1c-0.4,0-0.7,0-1.1,0
			c0,0,0-0.1,0.1-0.1c0.2-0.3,0.4-0.7,0.6-1c0,0,0.1-0.1,0.1-0.1c0.3-0.1,0.4-0.3,0.4-0.6c0,0,0-0.1,0-0.1c0.1-0.1,0.1-0.2,0.2-0.4
			c0,0,0.1-0.1,0.1-0.1C10.7,9.2,11.1,9.2,11.5,9.3C11.5,9.2,11.5,9.2,11.5,9.3L11.5,9.3z"/>
		<path class="st2" d="M5.3,11.6c0.2-0.3,0.3-0.6,0.5-0.9c0.2-0.3,0.3-0.6,0.5-0.8c0,0,0.1-0.1,0.1-0.1c0.1,0,0.2-0.1,0.3-0.1
			c0.2-0.1,0.3-0.2,0.4-0.4c0-0.1,0.1-0.1,0.1-0.1c0.2,0,0.4,0,0.6,0C7.8,9.4,7.8,9.5,7.7,9.6c-0.4,0.6-0.8,1.3-1.2,1.9
			c0,0-0.1,0.1-0.1,0.1C6.1,11.6,5.7,11.6,5.3,11.6C5.3,11.6,5.3,11.6,5.3,11.6L5.3,11.6z"/>
		<path class="st2" d="M8.5,9.2C8.7,9.6,8.7,10,9,10.4c-0.1,0.2-0.3,0.5-0.4,0.7c-0.1,0.2-0.2,0.3-0.3,0.5c0,0-0.1,0.1-0.1,0.1
			c-0.4,0-0.8,0-1.2,0C7.6,10.8,8,10,8.5,9.2L8.5,9.2z"/>
		<path class="st2" d="M3.5,11.6c0.5-0.8,0.9-1.5,1.3-2.3c-0.1,0.5,0.3,0.8,0.7,0.8c0,0.1-0.1,0.1-0.1,0.2c-0.3,0.4-0.5,0.9-0.8,1.3
			c0,0-0.1,0.1-0.1,0.1C4.3,11.6,3.9,11.6,3.5,11.6L3.5,11.6z"/>
		<path class="st2" d="M8.3,4c0,0.4-0.3,0.8-0.8,0.8C7.1,4.7,6.8,4.4,6.8,4c0-0.4,0.3-0.8,0.8-0.8C7.9,3.2,8.3,3.5,8.3,4L8.3,4z"/>
	</g>
</g>
</svg>
