<?xml version="1.0" encoding="utf-8"?>
<!-- Generator: Adobe Illustrator 27.0.1, SVG Export Plug-In . SVG Version: 6.00 Build 0)  -->
<svg version="1.1" id="Layer_1" xmlns="http://www.w3.org/2000/svg" xmlns:xlink="http://www.w3.org/1999/xlink" x="0px" y="0px"
	 viewBox="0 0 19 19" style="enable-background:new 0 0 19 19;" xml:space="preserve">
<style type="text/css">
	.st0{opacity:0.75;fill:#BFBFBF;enable-background:new    ;}
	.st1{fill:#006E34;}
	.st2{fill:#FFFFFF;}
	.st3{fill:none;}
</style>
<g>
	<path class="st0" d="M0,9.5C0,14.7,4.3,19,9.5,19S19,14.7,19,9.5S14.7,0,9.5,0S0,4.3,0,9.5"/>
	<path class="st1" d="M1,9.5C1,14.2,4.8,18,9.5,18S18,14.2,18,9.5S14.2,1,9.5,1S1,4.8,1,9.5"/>
	<path class="st2" d="M6.7,6.1c0-0.5,0.5-1.3,2.2-1.3c1.9-0.1,3.7,0.6,5.1,1.9V5.1c-1.4-1.2-3.2-1.8-5.1-1.7c-2,0-4.5,1.3-4.5,3.4
		c0,4.3,7.3,2.8,7.3,5.6c0,1.1-1.1,1.7-2.8,1.7c-1.8-0.1-3.5-1.2-4.4-2.8v2.2c0.6,1.1,2.2,2.2,5,2.2s5-1.7,5-3.9
		C14.5,7.3,6.7,8.9,6.7,6.1z"/>
	<path class="st3" d="M0,0h19v19H0V0z"/>
</g>
</svg>
