<?xml version="1.0" encoding="utf-8"?>
<!-- Generator: Adobe Illustrator 27.0.1, SVG Export Plug-In . SVG Version: 6.00 Build 0)  -->
<svg version="1.1" id="Layer_1" xmlns:dc="http://purl.org/dc/elements/1.1/" xmlns:svg="http://www.w3.org/2000/svg"
	 xmlns="http://www.w3.org/2000/svg" xmlns:xlink="http://www.w3.org/1999/xlink" x="0px" y="0px" viewBox="0 0 15 15"
	 style="enable-background:new 0 0 15 15;" xml:space="preserve">
<style type="text/css">
	.st0{fill:#CC0000;}
	.st1{fill:#FFFFFF;}
</style>
<rect class="st0" width="15" height="15"/>
<path class="st1" d="M7.1,9.3C7.3,9.2,7.4,9.1,7.5,9l0.1-0.1l0,0.1c0,0.1,0,0.1,0,0.2l0,0.1h0.5h0.5V8.1c0-1.4,0-1.5-0.2-1.7
	C8.2,6.2,8,6,7.8,6C7.4,5.9,6.6,5.9,6.2,6L6,6.1v0.4v0.4l0.2,0c0.1,0,0.4-0.1,0.6-0.1c0.4,0,0.4,0,0.6,0.1C7.5,6.9,7.5,7,7.5,7.1
	l0,0.1l-0.4,0c-0.6,0-1,0.1-1.2,0.4C5.7,7.8,5.7,8,5.7,8.4c0,0.4,0.1,0.6,0.3,0.8c0.1,0.1,0.2,0.1,0.2,0.1c0,0,0.1,0,0.2,0
	C6.5,9.4,6.9,9.4,7.1,9.3z M6.8,8.7C6.7,8.6,6.6,8.4,6.7,8.2c0-0.3,0.2-0.4,0.6-0.4l0.3,0V8c0,0.4-0.2,0.7-0.5,0.7
	C7,8.7,6.9,8.7,6.8,8.7z M2.8,7.4V5.5h0.6h0.6V5.1V4.6H2.3H0.6v0.5v0.5h0.5h0.5v1.9v1.9h0.6h0.6V7.4z M4.7,8.5c0-0.8,0-1.1,0.1-1.3
	C5,7,5.1,7,5.4,7l0.3,0V6.4V5.9l-0.2,0C5.2,5.9,5,6,4.9,6.2C4.8,6.3,4.7,6.4,4.7,6.5C4.7,6.6,4.6,6.6,4.6,6.5c0,0,0-0.2,0-0.3l0-0.2
	H4.1H3.6v1.7v1.7h0.6h0.6V8.5z M10.3,8.3c0-1.1,0-1.1,0.2-1.3C10.6,7,10.8,6.9,10.9,7C10.9,7,11,7,11,7.1c0.1,0.1,0.1,0.2,0.1,1.2
	l0,1.1h0.6h0.6l0-1c0-0.9,0-1,0.1-1.1c0.1-0.2,0.4-0.3,0.6-0.2l0.1,0.1l0,1.1l0,1.1h0.6h0.6l0-1.3c0-1.3,0-1.3-0.1-1.5
	c-0.1-0.2-0.3-0.4-0.5-0.5c-0.2-0.1-0.6-0.1-0.9,0c-0.2,0.1-0.4,0.3-0.5,0.4l0,0.1L12,6.3c-0.3-0.4-1-0.5-1.5-0.2
	c0,0-0.1,0.1-0.2,0.2l-0.1,0.2V6.3V6H9.7H9.2v1.7v1.7h0.6h0.6V8.3z"/>
</svg>
