<?xml version="1.0" encoding="UTF-8"?><svg id="Layer_1" xmlns="http://www.w3.org/2000/svg" width="15" height="15" viewBox="0 0 15 15"><path d="M7.4289,.9708L.5536,12.7569H14.3041L7.4289,.9708Z" stroke="#ddd" stroke-linejoin="round"/><path d="M7.4289,.9708L.5536,12.7569H14.3041L7.4289,.9708Z" fill="#fff" stroke="#c00" stroke-linejoin="round"/><path d="M7.5446,9.196c-.0312,.0891-.1288,.136-.2179,.1047-.0136-.0048-.0266-.0112-.0385-.0193l-.1709-.2564v-1.3675l-.5128,.8547-.9402-.5128,.7692-1.5385h-.5128l-.6838,1.1966-.2564-.2564v-.2564l.6838-1.1966h1.7094c.1888,0,.3419,.1531,.3419,.3419l-.1709,2.906Zm1.3675,1.0257l-3.5043-2.906,.0855-.2564,3.5898,2.9915,.6838-.8547c.1029-.2124,.3585-.3012,.5709-.1983,.0865,.0419,.1564,.1118,.1983,.1983l1.8804,2.4787H7.5446l1.1111-1.3675,.2564-.0855Zm-2.3932-1.5385l.5983,.8547,.0855,2.1368c-.2155-.0261-.4059-.153-.5128-.3419l-.0855-1.453-.6838-.9402-1.5385,2.6496c-.0759-.0343-.1367-.095-.1709-.1709l-.0855-.5128,1.453-2.7351,.9402,.5128Zm1.1111-3.077c0-.3304,.2679-.5983,.5983-.5983s.5983,.2679,.5983,.5983-.2679,.5983-.5983,.5983-.5983-.2679-.5983-.5983"/></svg>